<svg width="421" height="107" viewBox="0 0 421 107" fill="none" xmlns="http://www.w3.org/2000/svg">
<path d="M0 25.1765C0 25.1765 0.335124 25.1765 0.377015 25.1765C1.65698 20.2424 4.45657 15.8377 8.37811 12.5882C9.64244 11.5796 11.1086 10.8553 12.677 10.4643C14.2455 10.0733 15.8796 10.0249 17.4684 10.3224C18.4737 10.3224 18.0967 11.3714 18.0967 12.0008C18.0967 16.4906 18.0967 20.9804 18.0967 25.4702C18.0967 27.1486 18.6413 27.5263 20.2331 27.4843H41.5973C43.0216 27.4843 43.6081 27.862 43.4824 29.3306C43.3567 30.7992 43.4824 32.8133 43.4824 34.5337C43.5562 35.8608 43.3482 37.1884 42.8721 38.429C42.396 39.6696 41.6627 40.795 40.7205 41.7308C39.7783 42.6666 38.6487 43.3917 37.4062 43.8581C36.1637 44.3245 34.8366 44.5216 33.5124 44.4365C28.9464 44.4365 24.3803 44.4365 19.8142 44.4365C18.4318 44.4365 18.0548 44.8561 18.0548 46.1988C18.0548 56.3533 18.0548 66.5078 18.0548 76.6204C17.9556 78.9339 18.5486 81.2244 19.7577 83.1981C20.9669 85.1718 22.737 86.7388 24.8411 87.698C25.6098 87.9639 26.4158 88.1055 27.2289 88.1177C32.1047 88.7571 37.0614 87.9854 41.5135 85.8937C43.0216 85.0965 43.6081 85.2643 43.5243 87.0686C43.573 89.6317 43.4751 92.1955 43.231 94.7475C43.1053 96.0891 42.6967 97.3888 42.0323 98.5606C41.368 99.7323 40.463 100.75 39.3771 101.545C36.6112 103.738 33.2248 105.001 29.7004 105.154C25.979 105.444 22.2352 105.161 18.5994 104.315C14.0872 103.305 9.98169 100.961 6.81483 97.5869C3.64796 94.2127 1.56569 89.9636 0.837811 85.3902C0.837811 84.4251 0.837811 83.3341 0.0418905 82.4949V80.8584C0.384819 79.9239 0.384819 78.8977 0.0418905 77.9631V29.8761C0.384819 28.9415 0.384819 27.9153 0.0418905 26.9808L0 25.1765Z" fill="black"/>
<path d="M194.917 0C197.691 0.607143 200.134 2.24115 201.758 4.57515C203.381 6.90915 204.064 9.77101 203.672 12.5882C202.876 19.0502 195.713 25.1765 188.633 21.358C187.254 20.6696 186.029 19.707 185.033 18.529C184.037 17.3511 183.291 15.9823 182.84 14.5062C182.39 13.03 182.244 11.4774 182.411 9.94297C182.579 8.4085 183.057 6.92429 183.816 5.58078C185.321 2.88553 187.815 0.88372 190.77 0L194.917 0Z" fill="black"/>
<path d="M0 26.9808C0.322721 27.3941 0.498051 27.9037 0.498051 28.4284C0.498051 28.9531 0.322721 29.4628 0 29.8761L0 26.9808Z" fill="black"/>
<path d="M0 77.9632C0.322721 78.3765 0.498051 78.8861 0.498051 79.4108C0.498051 79.9356 0.322721 80.4452 0 80.8585L0 77.9632Z" fill="black"/>
<path d="M245.018 80.0192C245.018 87.5721 245.018 95.0831 245.018 102.636C245.018 104.189 244.599 104.65 243.049 104.566C240.183 104.705 237.316 104.322 234.587 103.433C232.419 102.679 230.534 101.277 229.186 99.4162C227.838 97.5555 227.091 95.3257 227.047 93.027C227.047 80.4388 227.047 68.1443 227.047 55.7239C227.297 49.4819 229.413 43.459 233.121 38.4361C235.804 34.8881 239.275 32.0148 243.259 30.0439C247.379 27.7548 251.94 26.3757 256.637 25.9993C261.334 25.623 266.056 26.2581 270.487 27.8619C275.464 29.5131 279.908 32.4705 283.356 36.4261C286.804 40.3817 289.13 45.1909 290.092 50.3529C290.796 53.507 291.148 56.7299 291.139 59.9619C291.139 74.1447 291.139 88.2855 291.139 102.468C291.139 104.314 290.595 104.902 288.794 104.692C286.413 104.671 284.04 104.404 281.714 103.895C278.871 103.155 276.392 101.408 274.737 98.9777C273.081 96.5475 272.36 93.5988 272.708 90.6772C272.708 80.6906 272.708 70.6619 272.708 60.6333C272.774 57.317 272.176 54.021 270.948 50.9404C269.8 48.2662 267.811 46.0413 265.283 44.6049C262.756 43.1685 259.829 42.5995 256.948 42.9845C254.068 43.3695 251.392 44.6875 249.329 46.7375C247.266 48.7875 245.928 51.4571 245.521 54.3392C244.857 59.5423 244.675 64.7958 244.976 70.0325C244.976 73.2635 245.018 76.6623 245.018 80.0192Z" fill="black"/>
<path d="M309.236 53.8357C309.236 45.7373 309.236 37.6808 309.236 29.5824C309.238 26.5442 309.889 23.5417 311.147 20.7768C312.404 18.0119 314.238 15.5489 316.525 13.5534C317.719 12.3651 319.161 11.4556 320.747 10.8899C322.333 10.3241 324.024 10.116 325.699 10.2804C327.04 10.2804 327.458 10.6581 327.458 12.0428C327.458 16.6165 327.458 21.1483 327.458 25.722C327.458 27.1487 327.836 27.6102 329.302 27.5683C336.423 27.5683 343.586 27.5683 350.708 27.5683C352.383 27.5683 352.886 28.0718 352.76 29.6663C352.635 31.2608 352.76 32.9812 352.76 34.6596C352.839 35.9624 352.642 37.267 352.182 38.4882C351.723 39.7094 351.011 40.8197 350.094 41.7465C349.176 42.6733 348.074 43.3957 346.859 43.8665C345.644 44.3372 344.343 44.5458 343.042 44.4785C338.462 44.4785 333.896 44.4785 329.344 44.4785C327.877 44.4785 327.5 44.8981 327.5 46.3247C327.5 56.1855 327.5 66.0883 327.5 75.9491C327.267 78.3352 327.768 80.7358 328.936 82.8285C330.104 84.9211 331.884 86.6057 334.035 87.6561C334.84 88.0313 335.706 88.2587 336.591 88.3275C341.461 88.969 346.413 88.1666 350.833 86.0196C352.3 85.2643 352.802 85.5581 352.76 87.1945C352.81 89.8135 352.712 92.4333 352.467 95.0412C352.338 96.3192 351.953 97.558 351.334 98.6829C350.715 99.8078 349.875 100.796 348.865 101.587C346.085 103.893 342.626 105.22 339.02 105.364C336.054 105.581 333.072 105.44 330.139 104.944C324.44 104.095 319.204 101.31 315.31 97.0553C312.061 92.983 310.105 88.0279 309.697 82.8306C308.817 74.2287 309.446 65.5847 309.278 56.9828C309.278 55.9338 309.278 54.9267 309.278 53.8777L309.236 53.8357Z" fill="black"/>
<path d="M72.5963 79.7255C72.5963 87.2365 72.5963 94.7894 72.5963 102.3C72.5963 104.063 72.0936 104.566 70.3761 104.44C67.6535 104.519 64.9332 104.222 62.2912 103.559C59.8034 103.005 57.5939 101.582 56.0586 99.5443C54.5234 97.5067 53.7628 94.988 53.9131 92.4396C53.9131 80.1031 53.9131 67.7247 53.9131 55.3882C53.9316 48.7113 55.9131 42.1877 59.6102 36.6318C60.2793 35.6688 61.0676 34.7947 61.9561 34.0302C65.1715 30.9106 69.1327 28.6704 73.4604 27.5243C77.788 26.3781 82.337 26.3643 86.6715 27.4843C89.4063 28.0536 91.8618 29.5494 93.6243 31.72C95.3869 33.8906 96.3488 36.6033 96.3482 39.4012C96.3482 41.3733 96.3482 43.3035 96.3482 45.2337C96.3482 47.1639 95.8874 46.7443 94.7145 46.1569C92.4238 44.8888 89.8867 44.1311 87.2768 43.9356C84.6669 43.7401 82.0455 44.1113 79.592 45.0239C77.8505 45.8063 76.3388 47.0237 75.2019 48.5593C74.0649 50.0949 73.3408 51.8973 73.099 53.7937C72.5963 57.2099 72.428 60.6671 72.5963 64.1161V79.7255Z" fill="black"/>
<path d="M184.067 59.7101C184.067 49.094 184.067 40.3242 184.067 31.5544C184.067 29.9599 184.444 29.3305 186.12 29.4984C187.795 29.6662 189.974 29.4984 191.901 29.7921C194.455 29.9221 196.876 30.9691 198.723 32.7414C200.569 34.5137 201.716 36.8927 201.954 39.4431C202.239 40.9932 202.379 42.5665 202.373 44.1427C202.373 56.1015 202.373 68.0603 202.373 79.9772C202.292 81.3201 202.488 82.6654 202.949 83.9289C203.41 85.1924 204.127 86.347 205.054 87.3203C206.017 88.3048 207.29 88.9271 208.657 89.0827C210.291 89.3611 211.943 89.5154 213.6 89.5442C216.826 89.5442 216.867 89.5442 216.826 92.8591C216.826 94.3278 216.826 95.7544 216.574 97.0552C216.35 99.1207 215.417 101.044 213.935 102.498C212.453 103.952 210.514 104.846 208.447 105.028C202.505 105.759 196.509 104.182 191.691 100.622C189.638 99.0237 187.946 97.0085 186.726 94.7088C185.506 92.4091 184.785 89.8768 184.612 87.2784C183.355 77.6274 184.318 67.7246 184.067 59.7101Z" fill="black"/>
<path fill-rule="evenodd" clip-rule="evenodd" d="M123.326 74.2706H133.296L133.212 74.1027C134.262 74.1027 135.308 74.1356 136.351 74.1683C138.426 74.2335 140.49 74.2983 142.554 74.1027C148.482 74.1243 154.339 72.8047 159.687 70.2424C161.77 69.2361 163.577 67.7353 164.949 65.8706C166.322 64.0058 167.219 61.8334 167.562 59.5424C167.952 57.6517 168.135 55.7241 168.107 53.7937C168.037 48.149 166.251 42.6597 162.988 38.057C159.725 33.4542 155.14 29.9566 149.842 28.0298C145.549 26.2814 140.919 25.5207 136.294 25.8039C131.668 26.0872 127.165 27.4071 123.116 29.6663C115.725 33.3816 109.965 39.7034 106.947 47.4157C103.024 56.687 102.059 66.946 104.182 76.7882C105.444 83.3962 108.513 89.5233 113.047 94.4871C117.581 99.4508 123.402 103.056 129.861 104.902C135.28 106.433 140.957 106.818 146.533 106.035C151.337 105.585 155.941 103.893 159.896 101.125C161.826 99.7166 163.286 97.7568 164.085 95.5028C165.178 92.0773 165.59 88.4709 165.3 84.8867C165.3 84.7513 165.323 84.6004 165.347 84.4442C165.42 83.9713 165.5 83.4502 164.965 83.1663C164.452 82.8944 164.113 83.2315 163.776 83.5669C163.645 83.6974 163.514 83.8276 163.373 83.9216C160.067 86.3627 156.307 88.1174 152.314 89.0827C148.442 89.8666 144.491 90.1906 140.543 90.0478C135.276 89.8421 130.279 87.6545 126.551 83.9216C124.344 81.6973 122.818 78.8874 122.153 75.8231C121.818 74.6482 122.027 74.2706 123.326 74.2706ZM123.326 60.5914H130.573L132.248 60.6753C136.882 60.8403 141.516 60.3888 146.03 59.3325C147.074 59.2056 148.057 58.7767 148.861 58.0985C149.664 57.4204 150.253 56.5222 150.555 55.5141C151.031 53.6605 150.986 51.711 150.424 49.8816C149.862 48.0522 148.805 46.4144 147.371 45.1498C144.566 43.0456 141.157 41.9083 137.652 41.9083C134.148 41.9083 130.738 43.0456 127.934 45.1498C125.986 46.9158 124.431 49.0726 123.371 51.48C122.31 53.8873 121.766 56.4913 121.776 59.1227C121.734 60.5914 122.237 60.5914 123.326 60.5914Z" fill="black"/>
<path fill-rule="evenodd" clip-rule="evenodd" d="M420.162 83.5019C420.59 78.6751 420.73 73.827 420.581 68.9835C420.824 63.6275 420.768 58.2622 420.414 52.9125C419.881 45.8875 416.918 39.2687 412.035 34.198C408.189 30.3946 403.281 27.8489 397.96 26.8968C394.483 26.3608 390.958 26.1921 387.446 26.3933C381.141 26.3539 374.994 28.3718 369.935 32.1419C367.957 33.6269 366.316 35.5145 365.118 37.6807C363.415 41.4802 362.763 45.669 363.233 49.8074C363.233 49.9211 363.202 50.047 363.171 50.1761C363.086 50.5237 362.996 50.894 363.484 51.1082C364.004 51.3361 364.297 50.9578 364.559 50.6201C364.635 50.5224 364.708 50.4282 364.783 50.3529C366.762 48.2675 369.104 46.5612 371.695 45.3176C378.975 42.1387 387.086 41.4027 394.818 43.2196C396.715 43.6116 398.417 44.6495 399.636 46.1568C401.706 48.8858 402.837 52.2129 402.861 55.64C402.945 56.9827 402.568 57.4443 401.144 57.4443C397.136 57.2624 393.121 57.3325 389.121 57.6541C382.36 57.9176 375.762 59.8181 369.894 63.1929C366.976 64.9802 364.561 67.4819 362.876 70.4623C361.19 73.4426 360.29 76.8037 360.259 80.229C360.007 83.9675 360.709 87.7088 362.299 91.1004C363.889 94.492 366.316 97.4222 369.349 99.6149C372.23 101.871 375.557 103.488 379.109 104.356C387.361 106.757 396.16 106.478 404.244 103.559C408.461 101.973 412.17 99.2688 414.973 95.7364C417.777 92.204 419.57 87.9754 420.162 83.5019ZM398.476 71.1842C397.806 71.2589 397.138 71.3333 396.536 71.3333C393.77 71.074 390.982 71.1727 388.242 71.627C387.08 71.8128 385.932 72.0792 384.807 72.4243C383.549 72.6923 382.377 73.2645 381.391 74.091C380.405 74.9175 379.636 75.9732 379.151 77.1659C378.741 78.3496 378.572 79.6039 378.654 80.8543C378.737 82.1047 379.069 83.3258 379.632 84.4451C380.195 85.5644 380.976 86.5591 381.93 87.3701C382.883 88.1812 383.99 88.7921 385.184 89.1666C388.308 90.107 391.613 90.2797 394.819 89.6702C396.737 89.4281 398.506 88.5051 399.804 87.0686C400.91 85.7454 401.74 84.213 402.244 82.5623C402.747 80.9116 402.915 79.1763 402.736 77.4596C402.71 76.813 402.77 76.0877 402.831 75.3657C402.962 73.7916 403.092 72.2335 402.317 71.5431C401.532 70.8438 399.999 71.0145 398.476 71.1842Z" fill="black"/>
</svg>
